<?xml version='1.0' encoding='utf-8'?>
<svg xmlns="http://www.w3.org/2000/svg" xmlns:xlink="http://www.w3.org/1999/xlink" width="205.52mm" height="224.7mm" clip-rule="evenodd" fill-rule="evenodd" image-rendering="optimizeQuality" shape-rendering="geometricPrecision" text-rendering="geometricPrecision" version="1.1" viewBox="0 0 20551 22469">
 <defs>
  <style type="text/css">
    .str0 {stroke:#2B2A29;stroke-width:52.9076}
    .fil2 {fill:none}
    .fil9 {fill:#2B2A29}
    .fil3 {fill:#434242}
    .fil0 {fill:#5B5B5B}
    .fil13 {fill:#5B5B5B;fill-rule:nonzero}
    .fil12 {fill:url(#k)}
    .fil8 {fill:url(#m)}
    .fil10 {fill:url(#l)}
    .fil11 {fill:url(#n)}
    .fil4 {fill:url(#o)}
    .fil1 {fill:url(#p)}
    .fil6 {fill:url(#q)}
    .fil7 {fill:url(#r)}
    .fil5 {fill:url(#s)}
    .fil14 {fill:url(#t)}
  </style>
  <linearGradient id="k" x1="10262" x2="10262" y1="20509" y2="22469" gradientUnits="userSpaceOnUse">
   <stop stop-color="#9D9E9E" offset="0"/>
   <stop stop-color="#434242" offset="1"/>
  </linearGradient>
  <linearGradient id="m" x1="10262" x2="10262" y2="3780.5" gradientUnits="userSpaceOnUse">
   <stop stop-color="#D9DADA" offset="0"/>
   <stop stop-color="#727271" offset="1"/>
  </linearGradient>
  <linearGradient id="l" x1="8138.3" x2="12386" y1="20051" y2="20051" gradientUnits="userSpaceOnUse">
   <stop stop-color="#2B2A29" offset="0"/>
   <stop stop-color="#626767" offset=".058824"/>
   <stop stop-color="#B5B1B4" offset=".12157"/>
   <stop stop-color="#E5E5E5" offset=".18824"/>
   <stop stop-color="#D9DADA" offset=".23922"/>
   <stop stop-color="#C8CECB" offset=".4"/>
   <stop stop-color="#9F9A9E" offset=".61961"/>
   <stop stop-color="#666467" offset=".78039"/>
   <stop stop-color="#2B2A29" offset="1"/>
  </linearGradient>
  <linearGradient id="n" x1="8138.3" x2="12386" y1="19107" y2="19107" gradientUnits="userSpaceOnUse" xlink:href="#l">
  </linearGradient>
  <linearGradient id="o" x1="9902.5" x2="10621" y1="10969" y2="10969" gradientUnits="userSpaceOnUse" xlink:href="#l">
  </linearGradient>
  <linearGradient id="p" y1="50%" y2="50%" xlink:href="#l">
  </linearGradient>
  <linearGradient id="q" x1="4046.1" x2="3794.9" y1="5223.8" y2="6161.3" gradientUnits="userSpaceOnUse" xlink:href="#k">
  </linearGradient>
  <linearGradient id="r" x1="16756" x2="16505" y1="8629.3" y2="9566.8" gradientUnits="userSpaceOnUse" xlink:href="#k">
  </linearGradient>
  <linearGradient id="s" x1="10326" x2="10198" y1="7151.2" y2="7632.2" gradientUnits="userSpaceOnUse" xlink:href="#k">
  </linearGradient>
  <radialGradient id="t">
   <stop stop-color="#5B5B5B" offset="0"/>
   <stop stop-color="#D9DADA" offset="1"/>
  </radialGradient>
 </defs>
  <path class="fil0" d="m4847 8785l-178 1718-141-60-187 1875h-245l-38-115-42 115h-237l-226-1875-147 60-120-1704c-3-24 1-40 23-49l564-207-84 163 184 671 67-726-55-108h173l-55 108 47 726 200-667-85-175 571 224c6 3 13 20 11 26z"/>
   <polygon class="fil1" points="0 12121 7841 12121 6834 12774 1041 12774"/>
   <polyline class="fil2 str0" points="1045 12142 3920 5934 6796 12142"/>
   <polygon class="fil1" points="12710 15468 20551 15468 19544 16121 13751 16121"/>
   <polyline class="fil2 str0" points="13755 15489 16630 9281 19505 15489"/>
  <path class="fil3" d="m11357 691l-786 90c-26-77-62-132-107-165-45-32-106-48-182-48-90 0-157 17-199 52s-63 79-63 132c0 45 19 85 58 120 68 61 228 136 480 225 359 128 609 254 750 376 140 124 209 286 209 485 0 117-27 224-80 321-54 96-140 194-259 294 72 77 126 155 161 233 34 79 52 169 52 269 0 139-37 268-110 389s-189 217-346 290c-157 72-369 108-635 108-169 0-320-14-452-42s-241-66-327-116c-85-49-155-105-211-170-55-65-96-127-124-186s-52-139-74-241l774-79c49 99 105 171 167 218 63 45 140 69 231 69 94 0 165-22 212-65 47-42 71-95 71-157 0-54-28-107-84-162-78-75-287-178-627-309-339-131-565-261-679-390-113-129-170-266-170-411 0-115 31-220 92-317s165-196 313-297c-69-74-121-147-152-219-32-72-47-152-47-241 0-115 28-220 83-315 56-95 127-171 216-228s179-98 271-124c124-34 284-51 480-51 260 0 456 23 585 68 129 47 235 117 316 213 82 96 147 223 193 381zm-1567 788c-70 92-106 166-106 222 0 34 12 64 35 90 38 42 132 96 282 163l789 346c61-91 92-163 92-218 0-44-18-83-55-118-54-51-211-128-473-235-262-105-450-189-564-250z"/>
  <rect class="fil4" x="9903" y="2932" width="719" height="16074" rx="555" ry="555"/>
  <path class="fil5" d="m18025 9472c26-96-32-195-127-220l-15179-4067c-96-26-195 31-220 127-26 95 31 194 127 220l15179 4067c95 25 194-32 220-127z"/>
  <path class="fil6" d="m4993 5980c68-252-83-513-335-580l-1230-330c-252-67-513 83-580 335-68 252 83 513 335 580l1230 330c252 67 513-83 580-335z"/>
  <path class="fil7" d="m17703 9386c68-252-83-513-335-581l-1231-329c-251-68-512 83-580 335-67 251 84 512 335 580l1231 330c252 67 513-84 580-335z"/>
  <path class="fil8" d="m11312 654l-754 88c-25-76-59-130-102-162-44-32-102-48-175-48-86 0-150 17-190 51-41 34-61 78-61 130 0 45 18 84 55 119 65 60 219 134 460 222 345 126 585 250 720 370 133 122 200 282 200 479 0 116-26 221-77 316s-134 192-248 291c69 75 121 152 154 229 33 78 50 166 50 266 0 136-35 264-105 383s-181 214-332 286c-151 71-354 106-608 106-163 0-307-14-434-41-126-28-230-65-313-114-82-49-149-105-202-168-53-64-93-125-120-184-26-58-50-137-70-237l741-78c47 98 101 169 161 215 60 45 134 67 221 67 90 0 158-20 203-63 45-41 68-94 68-155 0-53-27-106-81-160-74-74-274-175-600-304-325-130-542-258-651-385-109-128-163-263-163-406 0-113 29-217 88-312 58-95 158-193 300-293-66-73-115-145-146-216-30-71-45-150-45-238 0-113 27-216 80-310s122-168 207-225c85-56 172-97 259-122 120-34 273-51 461-51 249 0 437 23 560 68 124 46 226 115 304 209 79 95 140 221 185 377zm-1502 776c-68 91-102 164-102 219 0 34 11 63 33 89 37 41 127 95 271 161l756 341c59-90 88-161 88-215 0-43-17-82-53-116-51-50-202-127-453-232-251-104-431-186-540-247z"/>
  <path class="fil9" d="m8513 19593h3498c264 0 481 216 481 481 0 264-217 481-481 481h-3498c-264 0-481-217-481-481 0-265 217-481 481-481z"/>
  <path class="fil9" d="m8513 19593h3498c264 0 481-217 481-481 0-265-217-481-481-481h-3498c-264 0-481 216-481 481 0 264 217 481 481 481z"/>
  <path class="fil10" d="m8596 19593h3331c252 0 458 206 458 458s-206 458-458 458h-3331c-252 0-458-206-458-458s206-458 458-458z"/>
  <path class="fil11" d="m8596 19565h3331c252 0 458-206 458-458s-206-458-458-458h-3331c-252 0-458 206-458 458s206 458 458 458z"/>
  <path class="fil12" d="m1702 21287c760-58 1008-372 1070-778h14980c136 406 411 720 1070 778v1182h-17120v-1182z"/>
  <polygon class="fil13" points="16495 13203 16148 14028 16078 14023 16006 14017 15933 14011 15861 14004 15788 13999 15717 13993 15646 13988 15577 13984 15511 13981 15449 13978 15418 13978 15389 13978 15361 13978 15334 13978 15308 13980 15283 13981 15260 13984 15239 13985 15218 13988 15198 13992 15181 13996 15165 14001 15133 14018 15094 14036 15051 14058 15005 14082 14955 14106 14904 14133 14850 14160 14797 14187 14744 14214 14691 14241 14641 14267 14593 14293 14550 14316 14510 14337 14476 14356 14448 14373 14436 14381 14426 14390 14416 14399 14409 14409 14402 14420 14397 14432 14393 14444 14390 14455 14388 14469 14388 14480 14388 14494 14390 14506 14392 14519 14395 14532 14399 14544 14404 14557 14410 14568 14417 14579 14425 14590 14433 14599 14443 14609 14452 14617 14463 14625 14474 14630 14486 14636 14498 14641 14510 14644 14524 14646 14537 14646 14552 14645 14566 14643 14580 14639 14617 14623 14657 14606 14700 14587 14744 14567 14790 14547 14836 14526 14883 14505 14929 14483 14975 14461 15019 14441 15061 14422 15100 14404 15136 14387 15168 14371 15195 14358 15219 14346 15232 14342 15247 14337 15265 14332 15283 14328 15304 14324 15325 14320 15348 14316 15373 14313 15399 14310 15425 14307 15452 14305 15480 14304 15509 14301 15538 14301 15567 14300 15597 14300 15627 14300 15657 14301 15687 14302 15717 14304 15746 14306 15775 14308 15804 14313 15831 14316 15858 14321 15884 14326 15910 14333 15933 14339 15956 14347 15978 14355 15998 14364 16016 14373 15937 14408 15880 14434 15840 14451 15815 14461 15802 14468 15797 14470 15799 14469 15803 14466 15808 14464 15809 14463 15805 14465 15792 14470 15767 14482 15727 14499 15669 14524 15591 14559 15558 14581 15519 14607 15477 14636 15431 14667 15382 14701 15331 14736 15280 14772 15229 14808 15178 14844 15130 14879 15083 14913 15041 14944 15003 14973 14972 14998 14957 15010 14945 15021 14934 15030 14926 15037 14912 15050 14900 15063 14890 15078 14882 15093 14875 15107 14871 15123 14868 15138 14866 15154 14866 15170 14868 15185 14871 15201 14874 15215 14879 15229 14886 15244 14894 15258 14903 15270 14913 15283 14924 15293 14935 15303 14948 15312 14961 15320 14975 15327 14989 15333 15005 15336 15021 15339 15036 15339 15053 15339 15070 15335 15087 15331 15104 15323 15122 15315 15139 15303 15207 15253 15265 15211 15313 15177 15353 15147 15385 15124 15412 15104 15435 15088 15454 15075 15473 15061 15491 15048 15509 15033 15531 15016 15557 14995 15588 14971 15625 14941 15670 14905 15702 14889 15737 14873 15775 14854 15816 14837 15858 14817 15903 14796 15949 14776 15996 14755 16043 14733 16091 14713 16140 14691 16186 14669 16232 14648 16277 14626 16320 14606 16361 14586 16405 14567 16444 14552 16480 14537 16513 14524 16529 14517 16545 14511 16560 14505 16573 14498 16586 14490 16599 14483 16612 14475 16623 14466 16635 14457 16647 14448 16658 14437 16669 14425 16679 14413 16689 14399 16699 14385 16709 14369 16719 14351 16728 14333 16738 14313 16747 14291 16757 14268 16767 14243 16776 14216 16786 14187 16846 14034 16897 13901 16939 13790 16977 13695 16993 13654 17009 13615 17024 13581 17038 13551 17052 13523 17065 13499 17079 13476 17092 13455 17106 13439 17121 13423 17136 13409 17151 13396 17169 13386 17187 13375 17206 13366 17228 13357 17251 13348 17276 13341 17303 13333 17332 13325 17400 13306 17478 13283 17509 13276 17538 13268 17566 13260 17592 13252 17616 13242 17638 13234 17660 13225 17679 13214 17698 13203 17715 13192 17730 13181 17746 13169 17760 13155 17773 13141 17785 13127 17797 13111 17807 13094 17818 13077 17828 13058 17837 13037 17846 13017 17856 12995 17865 12972 17874 12947 17892 12894 17911 12835 17932 12770 17956 12699 17966 12661 17976 12628 17984 12601 17993 12575 17999 12555 18005 12537 18006 12531 18008 12524 18009 12517 18009 12513 18013 12496 18015 12479 18016 12464 18015 12449 18013 12436 18009 12422 18003 12411 17997 12399 17990 12389 17981 12380 17971 12373 17961 12365 17950 12358 17938 12354 17926 12349 17913 12346 17899 12344 17886 12344 17872 12344 17858 12345 17844 12347 17831 12351 17817 12357 17804 12363 17790 12370 17778 12380 17766 12389 17755 12400 17743 12413 17733 12427 17725 12443 17717 12459 17712 12471 17707 12485 17701 12503 17696 12521 17690 12544 17684 12567 17677 12594 17671 12622 17663 12652 17654 12682 17645 12713 17634 12747 17623 12780 17612 12814 17598 12849 17584 12885 17575 12911 17568 12931 17564 12940 17561 12947 17558 12952 17554 12957 17550 12963 17546 12967 17541 12971 17535 12975 17521 12982 17504 12991 17501 12993 17498 12996 17494 12998 17489 13001 17478 13006 17465 13011 17450 13016 17433 13021 17414 13027 17395 13031 17349 13040 17299 13051 17244 13061 17185 13071 17159 13078 17133 13084 17109 13090 17087 13094 17064 13099 17043 13102 17024 13104 17004 13106 16987 13108 16969 13109 16952 13108 16936 13107 16920 13106 16906 13103 16890 13100 16877 13097 16862 13093 16848 13089 16834 13083 16820 13078 16806 13071 16792 13064 16778 13056 16763 13048 16732 13030 16700 13010 16665 12989 16627 12964 16599 12944 16571 12924 16546 12905 16521 12885 16496 12865 16470 12845 16443 12825 16414 12805 16398 12791 16381 12777 16364 12762 16349 12746 16333 12728 16318 12709 16303 12690 16289 12670 16275 12649 16261 12627 16248 12604 16235 12581 16222 12557 16209 12533 16197 12508 16186 12483 16174 12456 16162 12431 16151 12404 16140 12378 16118 12325 16096 12271 16076 12217 16056 12163 16036 12111 16016 12061 16010 12044 16004 12029 15997 12015 15988 12002 15979 11991 15969 11980 15959 11972 15949 11964 15937 11958 15926 11954 15914 11950 15903 11948 15891 11947 15879 11947 15868 11949 15857 11951 15845 11954 15835 11960 15824 11966 15815 11972 15806 11980 15798 11990 15790 12001 15784 12012 15779 12025 15774 12038 15771 12053 15770 12069 15769 12085 15770 12102 15772 12121 15776 12140 15777 12146 15777 12153 15779 12161 15781 12170 15786 12189 15793 12214 15802 12239 15810 12268 15820 12297 15829 12326 15849 12375 15867 12420 15882 12462 15897 12501 15923 12573 15945 12635 15955 12664 15966 12690 15976 12716 15986 12740 15997 12762 16008 12784 16020 12805 16033 12825 16046 12845 16061 12864 16077 12883 16095 12902 16114 12921 16136 12943 16159 12963 16185 12985 16213 13007 16244 13030 16278 13055 16314 13081 16354 13109 16397 13138 16444 13169"/>
  <polygon class="fil13" points="16786 12618 16778 12641 16771 12664 16766 12686 16762 12707 16761 12730 16761 12751 16763 12772 16766 12794 16771 12814 16776 12833 16784 12853 16793 12871 16803 12889 16814 12906 16827 12923 16840 12937 16854 12952 16869 12966 16884 12978 16901 12990 16919 13000 16936 13009 16955 13016 16974 13023 16993 13027 17012 13031 17032 13033 17052 13033 17072 13032 17092 13029 17112 13024 17132 13017 17153 13010 17174 13000 17193 12989 17209 12977 17225 12964 17240 12951 17253 12936 17264 12920 17274 12904 17283 12886 17290 12868 17296 12851 17301 12832 17305 12814 17307 12794 17308 12775 17308 12756 17307 12736 17305 12716 17302 12699 17297 12679 17292 12661 17286 12643 17278 12625 17269 12608 17260 12592 17250 12576 17239 12562 17227 12547 17214 12535 17199 12523 17185 12513 17173 12505 17159 12498 17146 12494 17132 12489 17118 12485 17104 12482 17089 12479 17075 12477 17059 12475 17045 12475 17030 12475 17015 12476 17000 12478 16985 12479 16971 12483 16956 12487 16942 12490 16928 12494 16915 12500 16901 12505 16888 12512 16876 12518 16864 12527 16853 12535 16842 12544 16831 12553 16822 12563 16814 12573 16805 12583 16798 12595 16792 12606"/>
  <polygon class="fil13" points="3800 8013 3791 8036 3785 8059 3780 8081 3776 8102 3775 8125 3775 8146 3777 8167 3780 8189 3785 8209 3790 8228 3798 8248 3807 8266 3817 8284 3828 8301 3840 8317 3853 8332 3868 8347 3883 8361 3898 8373 3915 8385 3933 8395 3950 8404 3969 8411 3988 8418 4006 8422 4026 8426 4046 8428 4066 8428 4086 8427 4106 8424 4126 8419 4146 8412 4167 8405 4188 8395 4207 8384 4223 8372 4239 8359 4253 8346 4266 8330 4278 8314 4288 8298 4297 8281 4304 8263 4310 8246 4315 8227 4319 8209 4321 8189 4322 8170 4322 8151 4321 8131 4319 8111 4315 8093 4311 8073 4306 8056 4299 8038 4292 8020 4283 8003 4273 7987 4264 7971 4253 7956 4240 7942 4227 7930 4213 7917 4199 7907 4187 7900 4173 7893 4160 7889 4146 7884 4132 7880 4118 7877 4103 7874 4089 7872 4073 7870 4058 7870 4044 7870 4029 7871 4014 7873 3999 7874 3985 7878 3970 7881 3956 7885 3942 7889 3928 7894 3915 7900 3902 7907 3890 7913 3878 7922 3866 7930 3856 7939 3845 7948 3836 7958 3827 7968 3819 7978 3812 7990 3806 8001"/>
  <circle class="fil14" cx="10262" cy="7392" r="784"/>
</svg>